<svg width="20" height="20" viewBox="0 0 20 20" fill="none" xmlns="http://www.w3.org/2000/svg">
<path d="M14.0066 3.18863V1.92955C14.0066 1.59863 13.7321 1.32422 13.4012 1.32422C13.0703 1.32422 12.7959 1.59863 12.7959 1.92955V3.14021H7.54971V1.92955C7.54971 1.59863 7.27529 1.32422 6.94438 1.32422C6.61346 1.32422 6.33905 1.59863 6.33905 1.92955V3.18863C4.15986 3.39041 3.10255 4.68985 2.94113 6.61884C2.92499 6.8529 3.11869 7.0466 3.34468 7.0466H17.0009C17.235 7.0466 17.4287 6.84483 17.4045 6.61884C17.2431 4.68985 16.1857 3.39041 14.0066 3.18863Z" fill="#EAE2B7"/>
<path opacity="0.4" d="M16.6295 8.25684C17.0734 8.25684 17.4366 8.62003 17.4366 9.06394V14.0357C17.4366 16.457 16.226 18.0713 13.4011 18.0713H6.94422C4.11935 18.0713 2.90869 16.457 2.90869 14.0357V9.06394C2.90869 8.62003 3.27189 8.25684 3.7158 8.25684H16.6295Z" fill="#EAE2B7"/>
<path d="M7.34788 12.4219C7.13803 12.4219 6.92818 12.3331 6.77483 12.1878C6.62955 12.0345 6.54077 11.8247 6.54077 11.6148C6.54077 11.405 6.62955 11.1951 6.77483 11.0418C7.00082 10.8158 7.35595 10.7431 7.65458 10.8723C7.7595 10.9126 7.84828 10.9691 7.92092 11.0418C8.0662 11.1951 8.15498 11.405 8.15498 11.6148C8.15498 11.8247 8.0662 12.0345 7.92092 12.1878C7.76757 12.3331 7.55773 12.4219 7.34788 12.4219Z" fill="#EAE2B7"/>
<path d="M10.1723 12.4219C9.96249 12.4219 9.75265 12.3331 9.5993 12.1878C9.45402 12.0345 9.36523 11.8247 9.36523 11.6148C9.36523 11.405 9.45402 11.1951 9.5993 11.0418C9.67194 10.9691 9.76072 10.9126 9.86564 10.8723C10.1643 10.7431 10.5194 10.8158 10.7454 11.0418C10.8907 11.1951 10.9794 11.405 10.9794 11.6148C10.9794 11.8247 10.8907 12.0345 10.7454 12.1878C10.705 12.2201 10.6647 12.2524 10.6243 12.2847C10.5759 12.317 10.5275 12.3412 10.479 12.3574C10.4306 12.3816 10.3822 12.3977 10.3338 12.4058C10.2773 12.4139 10.2288 12.4219 10.1723 12.4219Z" fill="#EAE2B7"/>
<path d="M12.9973 12.4218C12.7874 12.4218 12.5776 12.3331 12.4242 12.1878C12.279 12.0344 12.1902 11.8246 12.1902 11.6147C12.1902 11.4049 12.279 11.195 12.4242 11.0417C12.505 10.9691 12.5857 10.9125 12.6906 10.8722C12.8359 10.8076 12.9973 10.7915 13.1587 10.8238C13.2071 10.8318 13.2556 10.848 13.304 10.8722C13.3524 10.8883 13.4008 10.9126 13.4493 10.9448C13.4896 10.9771 13.53 11.0094 13.5703 11.0417C13.7156 11.195 13.8044 11.4049 13.8044 11.6147C13.8044 11.8246 13.7156 12.0344 13.5703 12.1878C13.53 12.2201 13.4896 12.2523 13.4493 12.2846C13.4008 12.3169 13.3524 12.3411 13.304 12.3573C13.2556 12.3815 13.2071 12.3976 13.1587 12.4057C13.1022 12.4138 13.0457 12.4218 12.9973 12.4218Z" fill="#EAE2B7"/>
<path d="M7.34763 15.247C7.24271 15.247 7.13779 15.2228 7.04093 15.1825C6.93601 15.1421 6.8553 15.0856 6.77459 15.013C6.62931 14.8596 6.54053 14.6498 6.54053 14.4399C6.54053 14.2301 6.62931 14.0202 6.77459 13.8669C6.8553 13.7943 6.93601 13.7377 7.04093 13.6974C7.18621 13.6328 7.34763 13.6167 7.50906 13.649C7.55748 13.657 7.60591 13.6732 7.65434 13.6974C7.70276 13.7135 7.75119 13.7378 7.79961 13.77C7.83997 13.8023 7.88032 13.8346 7.92068 13.8669C8.06596 14.0202 8.15474 14.2301 8.15474 14.4399C8.15474 14.6498 8.06596 14.8596 7.92068 15.013C7.88032 15.0453 7.83997 15.0856 7.79961 15.1098C7.75119 15.1421 7.70276 15.1663 7.65434 15.1825C7.60591 15.2067 7.55748 15.2228 7.50906 15.2309C7.45256 15.239 7.40413 15.247 7.34763 15.247Z" fill="#EAE2B7"/>
<path d="M10.1723 15.2467C9.96249 15.2467 9.75265 15.1579 9.5993 15.0126C9.45402 14.8593 9.36523 14.6494 9.36523 14.4396C9.36523 14.2297 9.45402 14.0199 9.5993 13.8666C9.89793 13.5679 10.4468 13.5679 10.7454 13.8666C10.8907 14.0199 10.9794 14.2297 10.9794 14.4396C10.9794 14.6494 10.8907 14.8593 10.7454 15.0126C10.592 15.1579 10.3822 15.2467 10.1723 15.2467Z" fill="#EAE2B7"/>
<path d="M12.9973 15.2467C12.7874 15.2467 12.5776 15.1579 12.4242 15.0126C12.279 14.8593 12.1902 14.6494 12.1902 14.4396C12.1902 14.2297 12.279 14.0199 12.4242 13.8666C12.7229 13.5679 13.2717 13.5679 13.5703 13.8666C13.7156 14.0199 13.8044 14.2297 13.8044 14.4396C13.8044 14.6494 13.7156 14.8593 13.5703 15.0126C13.417 15.1579 13.2071 15.2467 12.9973 15.2467Z" fill="#EAE2B7"/>
</svg>
